<svg xmlns="http://www.w3.org/2000/svg" xmlns:xlink="http://www.w3.org/1999/xlink" width="500" zoomAndPan="magnify" viewBox="0 0 375 374.999991" height="500" preserveAspectRatio="xMidYMid meet" version="1.0"><defs><g/><clipPath id="8c302a0629"><path d="M 32.367188 93.898438 L 165 93.898438 L 165 225.898438 L 32.367188 225.898438 Z M 32.367188 93.898438 " clip-rule="nonzero"/></clipPath><clipPath id="c8154c57b9"><path d="M 204.890625 97.085938 L 351.890625 97.085938 L 351.890625 223 L 204.890625 223 Z M 204.890625 97.085938 " clip-rule="nonzero"/></clipPath></defs><rect x="-37.5" width="450" fill="#ffffff" y="-37.499999" height="449.999989" fill-opacity="1"/><rect x="-37.5" width="450" fill="#ffffff" y="-37.499999" height="449.999989" fill-opacity="1"/><g clip-path="url(#8c302a0629)"><path fill="#70c0ee" d="M 90.75 160.847656 L 90.75 126.8125 C 90.75 126.140625 91.109375 125.523438 91.691406 125.191406 L 104.734375 117.761719 C 105.3125 117.429688 106.019531 117.433594 106.59375 117.769531 C 107.167969 118.101562 107.523438 118.714844 107.523438 119.378906 L 107.523438 131.15625 C 107.523438 132.183594 106.6875 133.019531 105.65625 133.019531 C 104.625 133.019531 103.792969 132.183594 103.792969 131.15625 L 103.792969 122.589844 L 94.480469 127.894531 L 94.480469 158.980469 L 96.4375 158.980469 C 97.46875 158.980469 98.304688 159.816406 98.304688 160.847656 C 98.304688 161.878906 97.46875 162.710938 96.4375 162.710938 L 92.613281 162.710938 C 91.585938 162.710938 90.75 161.878906 90.75 160.847656 Z M 139.652344 133.019531 C 140.679688 133.019531 141.515625 132.183594 141.515625 131.15625 L 141.515625 104.359375 L 150.828125 99.054688 L 150.828125 158.980469 L 148.867188 158.980469 C 147.839844 158.980469 147.003906 159.816406 147.003906 160.847656 C 147.003906 161.878906 147.839844 162.710938 148.867188 162.710938 L 152.691406 162.710938 C 153.722656 162.710938 154.558594 161.878906 154.558594 160.847656 L 154.558594 95.84375 C 154.558594 95.179688 154.203125 94.5625 153.628906 94.230469 C 153.054688 93.898438 152.347656 93.894531 151.769531 94.222656 L 138.726562 101.652344 C 138.144531 101.984375 137.785156 102.605469 137.785156 103.273438 L 137.785156 131.15625 C 137.785156 132.183594 138.621094 133.019531 139.652344 133.019531 Z M 116.132812 127.902344 C 117.164062 127.902344 118 127.070312 118 126.039062 L 118 116.125 L 127.308594 110.820312 L 127.308594 126.039062 C 127.308594 127.070312 128.144531 127.902344 129.175781 127.902344 C 130.203125 127.902344 131.039062 127.070312 131.039062 126.039062 L 131.039062 107.613281 C 131.039062 106.949219 130.6875 106.332031 130.113281 106 C 129.539062 105.664062 128.828125 105.664062 128.25 105.992188 L 115.210938 113.421875 C 114.628906 113.753906 114.269531 114.371094 114.269531 115.042969 L 114.269531 126.039062 C 114.269531 127.070312 115.101562 127.902344 116.132812 127.902344 Z M 144.503906 152.703125 C 144.503906 164.75 134.703125 174.550781 122.652344 174.550781 C 110.605469 174.550781 100.804688 164.75 100.804688 152.703125 C 100.804688 140.652344 110.605469 130.851562 122.652344 130.851562 C 134.703125 130.851562 144.503906 140.652344 144.503906 152.703125 Z M 140.773438 152.703125 C 140.773438 142.710938 132.644531 134.582031 122.652344 134.582031 C 112.664062 134.582031 104.535156 142.710938 104.535156 152.703125 C 104.535156 162.691406 112.664062 170.820312 122.652344 170.820312 C 132.644531 170.820312 140.773438 162.691406 140.773438 152.703125 Z M 139.582031 152.703125 C 139.582031 162.035156 131.988281 169.628906 122.652344 169.628906 C 113.320312 169.628906 105.726562 162.035156 105.726562 152.703125 C 105.726562 143.367188 113.320312 135.773438 122.652344 135.773438 C 131.988281 135.773438 139.582031 143.367188 139.582031 152.703125 Z M 135.851562 152.703125 C 135.851562 145.425781 129.929688 139.503906 122.652344 139.503906 C 115.375 139.503906 109.457031 145.425781 109.457031 152.703125 C 109.457031 159.980469 115.375 165.898438 122.652344 165.898438 C 129.929688 165.898438 135.851562 159.980469 135.851562 152.703125 Z M 122.652344 150.902344 C 121.449219 150.902344 120.46875 150.117188 120.46875 149.152344 C 120.46875 148.183594 121.449219 147.398438 122.652344 147.398438 C 123.242188 147.398438 124.445312 147.929688 124.6875 148.230469 C 125.253906 149.089844 126.410156 149.328125 127.269531 148.765625 C 128.132812 148.199219 128.371094 147.042969 127.804688 146.179688 C 127.113281 145.128906 125.75 144.386719 124.488281 143.992188 L 124.46875 143.261719 C 124.445312 142.230469 123.582031 141.414062 122.5625 141.441406 C 121.53125 141.464844 120.714844 142.320312 120.742188 143.351562 L 120.753906 143.960938 C 118.421875 144.695312 116.738281 146.742188 116.738281 149.152344 C 116.738281 152.175781 119.390625 154.632812 122.652344 154.632812 C 123.859375 154.632812 124.839844 155.417969 124.839844 156.382812 C 124.839844 157.351562 123.859375 158.136719 122.652344 158.136719 C 121.832031 158.136719 121.457031 157.949219 120.546875 157.089844 C 119.796875 156.382812 118.617188 156.417969 117.910156 157.167969 C 117.203125 157.914062 117.238281 159.097656 117.984375 159.800781 C 118.753906 160.53125 119.605469 161.246094 120.824219 161.613281 L 120.835938 162.140625 C 120.863281 163.15625 121.691406 163.960938 122.699219 163.960938 C 122.714844 163.960938 122.730469 163.960938 122.746094 163.960938 C 123.777344 163.9375 124.589844 163.082031 124.566406 162.050781 L 124.554688 161.574219 C 126.886719 160.839844 128.570312 158.789062 128.570312 156.382812 C 128.570312 153.363281 125.914062 150.902344 122.652344 150.902344 Z M 156.191406 195.6875 L 120.128906 209.585938 C 119.75 209.734375 119.359375 209.882812 118.960938 210.039062 C 114.460938 211.789062 109.105469 213.875 103.996094 213.875 C 102.515625 213.875 101.050781 213.699219 99.636719 213.289062 L 80.421875 207.707031 C 78.070312 207.027344 75.859375 207.214844 73.660156 208.285156 L 67.640625 211.210938 L 68.6875 213.730469 C 69.289062 215.167969 69.292969 216.75 68.703125 218.179688 C 68.113281 219.609375 66.992188 220.726562 65.554688 221.324219 L 56.316406 225.160156 C 55.589844 225.460938 54.835938 225.605469 54.097656 225.605469 C 51.820312 225.605469 49.652344 224.257812 48.726562 222.03125 L 33.082031 184.464844 C 32.484375 183.027344 32.476562 181.445312 33.066406 180.015625 C 33.660156 178.582031 34.777344 177.464844 36.21875 176.867188 L 45.457031 173.03125 C 48.410156 171.804688 51.8125 173.210938 53.042969 176.164062 L 53.972656 178.390625 C 58.398438 176.296875 63.074219 174.070312 67.773438 171.773438 C 77.605469 166.964844 84.296875 164.453125 96.777344 173.199219 L 113.878906 177.78125 C 116.792969 178.5625 119.066406 180.554688 120.300781 183.074219 L 144.367188 176.011719 C 149.65625 174.460938 154.050781 174.15625 157.429688 175.109375 C 160.570312 175.996094 162.820312 178.011719 163.757812 180.792969 C 165.636719 186.339844 162.03125 193.4375 156.191406 195.6875 Z M 65.246094 215.164062 L 49.601562 177.597656 C 49.269531 176.800781 48.492188 176.320312 47.679688 176.320312 C 47.414062 176.320312 47.144531 176.371094 46.886719 176.476562 L 37.648438 180.3125 C 37.128906 180.53125 36.726562 180.929688 36.515625 181.4375 C 36.304688 181.945312 36.308594 182.511719 36.527344 183.03125 L 52.167969 220.597656 C 52.609375 221.652344 53.828125 222.15625 54.886719 221.714844 L 64.125 217.878906 C 64.640625 217.664062 65.042969 217.265625 65.253906 216.757812 C 65.464844 216.246094 65.460938 215.683594 65.246094 215.164062 Z M 160.226562 181.988281 C 158.925781 178.148438 153.390625 177.253906 145.417969 179.59375 L 121.289062 186.671875 C 121.382812 187.785156 121.285156 188.9375 120.980469 190.082031 C 120.289062 192.664062 118.625 194.824219 116.296875 196.167969 C 113.96875 197.511719 111.261719 197.875 108.679688 197.179688 L 85.527344 190.976562 C 84.53125 190.710938 83.941406 189.6875 84.207031 188.691406 C 84.472656 187.699219 85.496094 187.105469 86.492188 187.375 L 109.648438 193.578125 C 111.265625 194.011719 112.964844 193.785156 114.429688 192.9375 C 115.898438 192.09375 116.945312 190.734375 117.378906 189.113281 C 118.277344 185.753906 116.277344 182.285156 112.914062 181.382812 L 95.492188 176.714844 C 95.277344 176.660156 95.074219 176.5625 94.894531 176.4375 C 83.910156 168.648438 78.601562 170.628906 69.410156 175.125 C 64.636719 177.457031 59.890625 179.71875 55.40625 181.835938 L 66.203125 207.761719 L 72.03125 204.929688 C 75.054688 203.457031 78.230469 203.1875 81.460938 204.125 L 100.675781 209.707031 C 105.746094 211.179688 112.324219 208.617188 117.609375 206.5625 C 118.007812 206.40625 118.402344 206.253906 118.785156 206.105469 L 154.851562 192.207031 C 158.796875 190.6875 161.457031 185.625 160.226562 181.988281 Z M 160.226562 181.988281 " fill-opacity="1" fill-rule="nonzero"/></g><g clip-path="url(#c8154c57b9)"><path fill="#70c0ee" d="M 277.980469 167.84375 C 282.804688 173.273438 285.160156 180 285.160156 188.925781 C 285.160156 197.816406 279.574219 206.554688 270.839844 211.605469 C 277.488281 205.679688 279.574219 200.625 279.574219 192.953125 C 279.574219 187.480469 277.90625 183 274.867188 179.164062 C 274.144531 178.289062 273.382812 177.453125 272.546875 176.617188 C 265.140625 169.511719 252.453125 164.726562 236.839844 159.445312 C 217.617188 152.835938 208.574219 145.503906 208.574219 128.941406 C 208.574219 117.582031 213.816406 125.292969 219.210938 114.125 C 217.273438 118.304688 216.589844 122.140625 216.589844 125.484375 C 216.78125 141.554688 237.371094 148.164062 253.402344 153.746094 C 263.621094 157.320312 271.332031 161.269531 276.574219 166.398438 C 277.070312 166.855469 277.523438 167.347656 277.980469 167.84375 Z M 278.890625 125.257812 L 279.957031 125.257812 L 272.585938 98.929688 L 271.558594 98.929688 C 271.558594 98.929688 272.625 111.65625 263.203125 106.070312 C 255.492188 100.675781 249.90625 97.183594 242.042969 97.183594 C 260.886719 98.054688 278.890625 125.257812 278.890625 125.257812 Z M 278.019531 164.878906 C 278.207031 165.070312 278.4375 165.296875 278.625 165.488281 L 282.691406 150.746094 L 277.371094 164.269531 C 277.601562 164.460938 277.828125 164.6875 278.019531 164.878906 Z M 321.972656 221.75 L 320.566406 222.8125 L 351.984375 222.8125 L 350.769531 221.75 L 349.894531 221.75 C 349.894531 221.75 342.902344 221.75 341.347656 216.355469 L 303.8125 100.675781 L 283.566406 100.675781 L 284.78125 101.742188 L 298.570312 101.742188 L 342.183594 221.785156 L 331.011719 221.785156 L 322.84375 193.828125 L 327.214844 216.316406 C 328.429688 220.191406 324.933594 221.597656 321.972656 221.75 Z M 274.332031 221.75 C 274.332031 221.75 262.632812 221.558594 264.570312 216.355469 L 274.144531 181.746094 C 273.839844 181.328125 273.535156 180.910156 273.230469 180.492188 C 272.777344 179.921875 272.246094 179.316406 271.710938 178.78125 L 256.933594 216.355469 C 256.210938 218.175781 255.414062 220.570312 253.441406 221.367188 C 251.652344 222.050781 249.375 221.597656 247.511719 221.597656 C 226.351562 221.597656 206.105469 191.394531 206.105469 191.394531 L 204.890625 191.394531 L 213.09375 221.066406 L 214.3125 221.066406 C 214.3125 221.066406 213.09375 206.742188 223.730469 213.050781 C 231.671875 218.59375 237.558594 222.128906 245.121094 222.734375 C 245.878906 222.8125 246.640625 222.8125 247.4375 222.8125 C 248.046875 222.8125 250.703125 222.8125 253.324219 222.773438 L 253.324219 222.8125 L 276.386719 222.8125 L 274.980469 221.75 Z M 274.332031 221.75 " fill-opacity="1" fill-rule="nonzero"/></g><path stroke-linecap="butt" transform="matrix(-0.00854047, 0.749951, -0.749951, -0.00854047, 187.496433, 93.918882)" fill="none" stroke-linejoin="miter" d="M 0.000730386 2.000574 L 175.631926 2.000611 " stroke="#a6a6a6" stroke-width="4" stroke-opacity="1" stroke-miterlimit="4"/><g fill="#a6a6a6" fill-opacity="1"><g transform="translate(6.339848, 270.59421)"><g><path d="M 12.125 0.34375 C 10.207031 0.34375 8.457031 -0.0703125 6.875 -0.90625 C 5.300781 -1.738281 4.515625 -3.382812 4.515625 -5.84375 C 4.515625 -6.226562 4.609375 -6.734375 4.796875 -7.359375 C 4.984375 -7.984375 5.21875 -8.53125 5.5 -9 C 5.789062 -9.46875 6.097656 -9.703125 6.421875 -9.703125 C 6.460938 -9.703125 6.554688 -9.601562 6.703125 -9.40625 C 6.859375 -9.21875 7.003906 -8.992188 7.140625 -8.734375 C 7.722656 -7.597656 8.25 -6.785156 8.71875 -6.296875 C 9.1875 -5.804688 9.6875 -5.503906 10.21875 -5.390625 C 10.757812 -5.273438 11.585938 -5.21875 12.703125 -5.21875 C 13.835938 -5.21875 15.046875 -5.453125 16.328125 -5.921875 C 17.617188 -6.390625 18.703125 -6.96875 19.578125 -7.65625 C 20.453125 -8.351562 20.890625 -9.007812 20.890625 -9.625 C 20.890625 -10.21875 20.609375 -10.734375 20.046875 -11.171875 C 19.492188 -11.617188 18.785156 -11.992188 17.921875 -12.296875 C 17.054688 -12.609375 15.875 -12.972656 14.375 -13.390625 C 12.070312 -14.046875 10.179688 -14.671875 8.703125 -15.265625 C 7.222656 -15.859375 5.945312 -16.710938 4.875 -17.828125 C 3.8125 -18.941406 3.28125 -20.363281 3.28125 -22.09375 C 3.28125 -24.707031 3.898438 -27 5.140625 -28.96875 C 6.378906 -30.9375 7.96875 -32.441406 9.90625 -33.484375 C 11.84375 -34.535156 13.820312 -35.0625 15.84375 -35.0625 C 17.113281 -35.0625 18.25 -34.757812 19.25 -34.15625 C 20.25 -33.550781 21.019531 -32.75 21.5625 -31.75 C 22.113281 -30.75 22.390625 -29.671875 22.390625 -28.515625 C 22.390625 -27.054688 22.257812 -25.835938 22 -24.859375 C 21.738281 -23.878906 21.210938 -23.390625 20.421875 -23.390625 C 19.890625 -23.390625 19.550781 -23.613281 19.40625 -24.0625 C 19.257812 -24.519531 19.1875 -25.191406 19.1875 -26.078125 C 19.1875 -27.335938 18.832031 -28.226562 18.125 -28.75 C 17.425781 -29.269531 16.40625 -29.53125 15.0625 -29.53125 C 14.101562 -29.53125 12.96875 -29.191406 11.65625 -28.515625 C 10.34375 -27.847656 9.210938 -26.976562 8.265625 -25.90625 C 7.328125 -24.84375 6.859375 -23.753906 6.859375 -22.640625 C 6.859375 -21.910156 7.148438 -21.300781 7.734375 -20.8125 C 8.316406 -20.320312 9.050781 -19.925781 9.9375 -19.625 C 10.820312 -19.332031 12.0625 -18.984375 13.65625 -18.578125 C 15.9375 -18.003906 17.789062 -17.441406 19.21875 -16.890625 C 20.65625 -16.347656 21.890625 -15.507812 22.921875 -14.375 C 23.960938 -13.238281 24.484375 -11.75 24.484375 -9.90625 C 24.484375 -7.625 23.742188 -5.710938 22.265625 -4.171875 C 20.785156 -2.640625 19.066406 -1.503906 17.109375 -0.765625 C 15.148438 -0.0234375 13.488281 0.34375 12.125 0.34375 Z M 12.125 0.34375 "/></g></g></g><g fill="#a6a6a6" fill-opacity="1"><g transform="translate(33.992434, 270.59421)"><g><path d="M 11.0625 -11.703125 C 10.65625 -11.703125 10.351562 -11.640625 10.15625 -11.515625 C 9.96875 -11.398438 9.789062 -11.179688 9.625 -10.859375 C 9.46875 -10.535156 9.242188 -9.941406 8.953125 -9.078125 L 7.03125 -3.515625 C 6.96875 -2.535156 6.78125 -1.753906 6.46875 -1.171875 C 6.15625 -0.597656 5.8125 -0.203125 5.4375 0.015625 C 5.070312 0.234375 4.785156 0.34375 4.578125 0.34375 C 3.890625 0.34375 3.375 0.179688 3.03125 -0.140625 C 2.695312 -0.472656 2.53125 -1.070312 2.53125 -1.9375 C 2.53125 -3.332031 2.859375 -4.609375 3.515625 -5.765625 L 4.171875 -7.6875 C 4.890625 -9.820312 5.5 -11.5625 6 -12.90625 C 5.9375 -13.09375 5.90625 -13.363281 5.90625 -13.71875 C 5.90625 -14.613281 6.015625 -15.332031 6.234375 -15.875 C 6.453125 -16.414062 6.867188 -16.882812 7.484375 -17.28125 L 12.96875 -30.15625 C 13 -30.238281 13.039062 -30.332031 13.09375 -30.4375 C 13.144531 -30.539062 13.195312 -30.660156 13.25 -30.796875 C 13.957031 -32.234375 14.597656 -33.367188 15.171875 -34.203125 C 15.753906 -35.046875 16.363281 -35.46875 17 -35.46875 C 18.414062 -35.46875 19.722656 -34.457031 20.921875 -32.4375 C 22.128906 -30.414062 23.160156 -28.046875 24.015625 -25.328125 C 24.867188 -22.617188 25.832031 -19.195312 26.90625 -15.0625 C 27.65625 -12.144531 28.238281 -9.984375 28.65625 -8.578125 C 29.082031 -7.179688 29.5 -6.242188 29.90625 -5.765625 C 29.976562 -5.671875 30.054688 -5.570312 30.140625 -5.46875 C 30.234375 -5.375 30.328125 -5.269531 30.421875 -5.15625 C 30.742188 -4.769531 30.972656 -4.472656 31.109375 -4.265625 C 31.242188 -4.054688 31.34375 -3.789062 31.40625 -3.46875 C 31.476562 -3.15625 31.515625 -2.707031 31.515625 -2.125 C 31.515625 -0.269531 30.628906 0.65625 28.859375 0.65625 C 28.097656 0.65625 27.398438 -0.0390625 26.765625 -1.4375 C 26.128906 -2.84375 25.628906 -4.332031 25.265625 -5.90625 L 25.03125 -6.71875 C 24.59375 -8.289062 24.257812 -9.378906 24.03125 -9.984375 C 23.800781 -10.585938 23.507812 -11.023438 23.15625 -11.296875 C 22.8125 -11.566406 22.304688 -11.703125 21.640625 -11.703125 Z M 14.171875 -17.421875 C 15.578125 -17.367188 16.953125 -17.34375 18.296875 -17.34375 C 19.710938 -17.34375 20.828125 -17.367188 21.640625 -17.421875 C 21.054688 -19.140625 20.191406 -21.226562 19.046875 -23.6875 L 16.765625 -28.640625 C 16.398438 -28.421875 15.6875 -27.023438 14.625 -24.453125 C 13.570312 -21.878906 12.691406 -19.554688 11.984375 -17.484375 Z M 14.171875 -17.421875 "/></g></g></g><g fill="#a6a6a6" fill-opacity="1"><g transform="translate(68.212509, 270.59421)"><g><path d="M 24.140625 -8.734375 C 25.066406 -6.773438 25.796875 -5.117188 26.328125 -3.765625 C 26.867188 -2.410156 27.140625 -1.328125 27.140625 -0.515625 C 27.140625 1.828125 26.351562 3 24.78125 3 C 24.28125 3 23.785156 2.460938 23.296875 1.390625 C 22.804688 0.328125 22.242188 -1.144531 21.609375 -3.03125 C 21.265625 -4.019531 20.59375 -5.695312 19.59375 -8.0625 C 18.59375 -10.425781 17.582031 -12.695312 16.5625 -14.875 C 15.539062 -17.0625 14.773438 -18.523438 14.265625 -19.265625 C 13.472656 -18.484375 12.546875 -17.421875 11.484375 -16.078125 C 10.429688 -14.734375 9.570312 -13.5625 8.90625 -12.5625 L 8.90625 -11.5 C 8.90625 -10.59375 8.953125 -9.148438 9.046875 -7.171875 L 9.125 -5.5625 L 9.28125 -1.90625 C 9.300781 -1.382812 9.195312 -0.921875 8.96875 -0.515625 C 8.75 -0.109375 8.46875 0.195312 8.125 0.40625 C 7.78125 0.613281 7.453125 0.71875 7.140625 0.71875 C 6.066406 0.71875 5.359375 0.191406 5.015625 -0.859375 C 4.679688 -1.921875 4.515625 -3.476562 4.515625 -5.53125 L 4.75 -14.921875 C 4.90625 -22.367188 5.0625 -28.070312 5.21875 -32.03125 C 5.25 -32.84375 5.425781 -33.566406 5.75 -34.203125 C 6.082031 -34.847656 6.59375 -35.171875 7.28125 -35.171875 C 7.75 -35.171875 8.164062 -34.9375 8.53125 -34.46875 C 8.894531 -34 9.078125 -33.320312 9.078125 -32.4375 L 8.734375 -22.8125 L 8.734375 -21 C 8.734375 -20.082031 8.75 -19.570312 8.78125 -19.46875 C 9.1875 -20.125 9.753906 -20.882812 10.484375 -21.75 C 11.367188 -22.820312 11.972656 -23.628906 12.296875 -24.171875 C 12.742188 -25.078125 13.132812 -25.71875 13.46875 -26.09375 C 13.800781 -26.476562 14.257812 -26.710938 14.84375 -26.796875 L 16.359375 -28.921875 C 17.054688 -29.921875 17.613281 -30.679688 18.03125 -31.203125 C 18.257812 -31.472656 18.613281 -31.960938 19.09375 -32.671875 C 19.632812 -33.472656 20.113281 -34.0625 20.53125 -34.4375 C 20.957031 -34.8125 21.554688 -35.007812 22.328125 -35.03125 C 22.515625 -35.03125 22.726562 -34.9375 22.96875 -34.75 C 23.207031 -34.570312 23.414062 -34.285156 23.59375 -33.890625 C 23.78125 -33.492188 23.875 -33.007812 23.875 -32.4375 C 23.875 -31.570312 23.75 -30.820312 23.5 -30.1875 C 23.257812 -29.550781 22.941406 -29.003906 22.546875 -28.546875 C 22.148438 -28.085938 21.578125 -27.492188 20.828125 -26.765625 C 20.710938 -26.648438 20.414062 -26.351562 19.9375 -25.875 C 19.457031 -25.394531 18.992188 -24.898438 18.546875 -24.390625 C 18.109375 -23.878906 17.707031 -23.351562 17.34375 -22.8125 C 18.132812 -21.46875 19.035156 -19.703125 20.046875 -17.515625 L 20.3125 -17 L 23.390625 -10.34375 Z M 24.140625 -8.734375 "/></g></g></g><g fill="#a6a6a6" fill-opacity="1"><g transform="translate(97.16131, 270.59421)"><g/></g></g><g fill="#a6a6a6" fill-opacity="1"><g transform="translate(109.057683, 270.59421)"><g><path d="M 11.0625 -11.703125 C 10.65625 -11.703125 10.351562 -11.640625 10.15625 -11.515625 C 9.96875 -11.398438 9.789062 -11.179688 9.625 -10.859375 C 9.46875 -10.535156 9.242188 -9.941406 8.953125 -9.078125 L 7.03125 -3.515625 C 6.96875 -2.535156 6.78125 -1.753906 6.46875 -1.171875 C 6.15625 -0.597656 5.8125 -0.203125 5.4375 0.015625 C 5.070312 0.234375 4.785156 0.34375 4.578125 0.34375 C 3.890625 0.34375 3.375 0.179688 3.03125 -0.140625 C 2.695312 -0.472656 2.53125 -1.070312 2.53125 -1.9375 C 2.53125 -3.332031 2.859375 -4.609375 3.515625 -5.765625 L 4.171875 -7.6875 C 4.890625 -9.820312 5.5 -11.5625 6 -12.90625 C 5.9375 -13.09375 5.90625 -13.363281 5.90625 -13.71875 C 5.90625 -14.613281 6.015625 -15.332031 6.234375 -15.875 C 6.453125 -16.414062 6.867188 -16.882812 7.484375 -17.28125 L 12.96875 -30.15625 C 13 -30.238281 13.039062 -30.332031 13.09375 -30.4375 C 13.144531 -30.539062 13.195312 -30.660156 13.25 -30.796875 C 13.957031 -32.234375 14.597656 -33.367188 15.171875 -34.203125 C 15.753906 -35.046875 16.363281 -35.46875 17 -35.46875 C 18.414062 -35.46875 19.722656 -34.457031 20.921875 -32.4375 C 22.128906 -30.414062 23.160156 -28.046875 24.015625 -25.328125 C 24.867188 -22.617188 25.832031 -19.195312 26.90625 -15.0625 C 27.65625 -12.144531 28.238281 -9.984375 28.65625 -8.578125 C 29.082031 -7.179688 29.5 -6.242188 29.90625 -5.765625 C 29.976562 -5.671875 30.054688 -5.570312 30.140625 -5.46875 C 30.234375 -5.375 30.328125 -5.269531 30.421875 -5.15625 C 30.742188 -4.769531 30.972656 -4.472656 31.109375 -4.265625 C 31.242188 -4.054688 31.34375 -3.789062 31.40625 -3.46875 C 31.476562 -3.15625 31.515625 -2.707031 31.515625 -2.125 C 31.515625 -0.269531 30.628906 0.65625 28.859375 0.65625 C 28.097656 0.65625 27.398438 -0.0390625 26.765625 -1.4375 C 26.128906 -2.84375 25.628906 -4.332031 25.265625 -5.90625 L 25.03125 -6.71875 C 24.59375 -8.289062 24.257812 -9.378906 24.03125 -9.984375 C 23.800781 -10.585938 23.507812 -11.023438 23.15625 -11.296875 C 22.8125 -11.566406 22.304688 -11.703125 21.640625 -11.703125 Z M 14.171875 -17.421875 C 15.578125 -17.367188 16.953125 -17.34375 18.296875 -17.34375 C 19.710938 -17.34375 20.828125 -17.367188 21.640625 -17.421875 C 21.054688 -19.140625 20.191406 -21.226562 19.046875 -23.6875 L 16.765625 -28.640625 C 16.398438 -28.421875 15.6875 -27.023438 14.625 -24.453125 C 13.570312 -21.878906 12.691406 -19.554688 11.984375 -17.484375 Z M 14.171875 -17.421875 "/></g></g></g><g fill="#a6a6a6" fill-opacity="1"><g transform="translate(143.277758, 270.59421)"><g><path d="M 20.59375 -6.484375 C 20.84375 -6.484375 21.140625 -6.367188 21.484375 -6.140625 C 21.835938 -5.910156 22.144531 -5.535156 22.40625 -5.015625 C 22.675781 -4.492188 22.8125 -3.832031 22.8125 -3.03125 C 22.8125 -2.601562 22.675781 -2.144531 22.40625 -1.65625 C 22.144531 -1.164062 21.828125 -0.753906 21.453125 -0.421875 C 21.078125 -0.0976562 20.742188 0.0625 20.453125 0.0625 L 18.75 0.0625 C 18.101562 0.0625 17.164062 0.0976562 15.9375 0.171875 C 14.707031 0.242188 13.753906 0.28125 13.078125 0.28125 C 9.734375 0.28125 7.070312 -0.53125 5.09375 -2.15625 C 3.113281 -3.789062 2.125 -6.566406 2.125 -10.484375 C 2.125 -13.640625 2.640625 -16.515625 3.671875 -19.109375 C 4.703125 -21.710938 6.207031 -23.773438 8.1875 -25.296875 C 10.164062 -26.828125 12.507812 -27.59375 15.21875 -27.59375 C 16.5625 -27.59375 17.800781 -27.257812 18.9375 -26.59375 C 20.082031 -25.9375 20.992188 -25.023438 21.671875 -23.859375 C 22.359375 -22.703125 22.703125 -21.414062 22.703125 -20 C 22.703125 -19.320312 22.59375 -18.628906 22.375 -17.921875 C 22.164062 -17.222656 21.84375 -16.875 21.40625 -16.875 C 21.082031 -16.875 20.796875 -17 20.546875 -17.25 C 20.304688 -17.5 20.015625 -17.894531 19.671875 -18.4375 C 19.253906 -19.09375 18.847656 -19.644531 18.453125 -20.09375 C 18.054688 -20.539062 17.507812 -20.925781 16.8125 -21.25 C 16.125 -21.582031 15.273438 -21.75 14.265625 -21.75 C 12.679688 -21.75 11.253906 -21.289062 9.984375 -20.375 C 8.722656 -19.46875 7.742188 -18.28125 7.046875 -16.8125 C 6.347656 -15.34375 6 -13.800781 6 -12.1875 C 6 -10.300781 6.351562 -8.859375 7.0625 -7.859375 C 7.769531 -6.859375 8.847656 -6.164062 10.296875 -5.78125 C 11.742188 -5.40625 13.71875 -5.21875 16.21875 -5.21875 C 16.757812 -5.21875 17.21875 -5.269531 17.59375 -5.375 C 17.976562 -5.476562 18.421875 -5.644531 18.921875 -5.875 C 19.554688 -6.1875 20.113281 -6.390625 20.59375 -6.484375 Z M 20.59375 -6.484375 "/></g></g></g><g fill="#a6a6a6" fill-opacity="1"><g transform="translate(168.481939, 270.59421)"><g><path d="M 20.59375 -6.484375 C 20.84375 -6.484375 21.140625 -6.367188 21.484375 -6.140625 C 21.835938 -5.910156 22.144531 -5.535156 22.40625 -5.015625 C 22.675781 -4.492188 22.8125 -3.832031 22.8125 -3.03125 C 22.8125 -2.601562 22.675781 -2.144531 22.40625 -1.65625 C 22.144531 -1.164062 21.828125 -0.753906 21.453125 -0.421875 C 21.078125 -0.0976562 20.742188 0.0625 20.453125 0.0625 L 18.75 0.0625 C 18.101562 0.0625 17.164062 0.0976562 15.9375 0.171875 C 14.707031 0.242188 13.753906 0.28125 13.078125 0.28125 C 9.734375 0.28125 7.070312 -0.53125 5.09375 -2.15625 C 3.113281 -3.789062 2.125 -6.566406 2.125 -10.484375 C 2.125 -13.640625 2.640625 -16.515625 3.671875 -19.109375 C 4.703125 -21.710938 6.207031 -23.773438 8.1875 -25.296875 C 10.164062 -26.828125 12.507812 -27.59375 15.21875 -27.59375 C 16.5625 -27.59375 17.800781 -27.257812 18.9375 -26.59375 C 20.082031 -25.9375 20.992188 -25.023438 21.671875 -23.859375 C 22.359375 -22.703125 22.703125 -21.414062 22.703125 -20 C 22.703125 -19.320312 22.59375 -18.628906 22.375 -17.921875 C 22.164062 -17.222656 21.84375 -16.875 21.40625 -16.875 C 21.082031 -16.875 20.796875 -17 20.546875 -17.25 C 20.304688 -17.5 20.015625 -17.894531 19.671875 -18.4375 C 19.253906 -19.09375 18.847656 -19.644531 18.453125 -20.09375 C 18.054688 -20.539062 17.507812 -20.925781 16.8125 -21.25 C 16.125 -21.582031 15.273438 -21.75 14.265625 -21.75 C 12.679688 -21.75 11.253906 -21.289062 9.984375 -20.375 C 8.722656 -19.46875 7.742188 -18.28125 7.046875 -16.8125 C 6.347656 -15.34375 6 -13.800781 6 -12.1875 C 6 -10.300781 6.351562 -8.859375 7.0625 -7.859375 C 7.769531 -6.859375 8.847656 -6.164062 10.296875 -5.78125 C 11.742188 -5.40625 13.71875 -5.21875 16.21875 -5.21875 C 16.757812 -5.21875 17.21875 -5.269531 17.59375 -5.375 C 17.976562 -5.476562 18.421875 -5.644531 18.921875 -5.875 C 19.554688 -6.1875 20.113281 -6.390625 20.59375 -6.484375 Z M 20.59375 -6.484375 "/></g></g></g><g fill="#a6a6a6" fill-opacity="1"><g transform="translate(193.686119, 270.59421)"><g><path d="M 13.765625 0.65625 C 11.753906 0.65625 9.851562 -0.0507812 8.0625 -1.46875 C 6.28125 -2.882812 4.851562 -4.679688 3.78125 -6.859375 C 2.71875 -9.046875 2.1875 -11.195312 2.1875 -13.3125 C 2.1875 -16.65625 2.765625 -19.410156 3.921875 -21.578125 C 5.085938 -23.742188 6.597656 -25.320312 8.453125 -26.3125 C 10.304688 -27.300781 12.3125 -27.796875 14.46875 -27.796875 C 16.75 -27.796875 18.710938 -27.203125 20.359375 -26.015625 C 22.015625 -24.835938 23.28125 -23.160156 24.15625 -20.984375 C 25.03125 -18.804688 25.46875 -16.25 25.46875 -13.3125 C 25.46875 -10.644531 24.914062 -8.242188 23.8125 -6.109375 C 22.707031 -3.972656 21.253906 -2.3125 19.453125 -1.125 C 17.660156 0.0625 15.765625 0.65625 13.765625 0.65625 Z M 21.6875 -13.5625 C 21.6875 -15.28125 21.40625 -16.800781 20.84375 -18.125 C 20.28125 -19.445312 19.5 -20.476562 18.5 -21.21875 C 17.5 -21.957031 16.382812 -22.328125 15.15625 -22.328125 C 13.632812 -22.328125 12.160156 -22.003906 10.734375 -21.359375 C 9.316406 -20.710938 8.15625 -19.753906 7.25 -18.484375 C 6.351562 -17.222656 5.90625 -15.703125 5.90625 -13.921875 C 5.90625 -12.421875 6.269531 -10.953125 7 -9.515625 C 7.726562 -8.085938 8.675781 -6.925781 9.84375 -6.03125 C 11.019531 -5.144531 12.234375 -4.703125 13.484375 -4.703125 C 14.898438 -4.703125 16.238281 -5.054688 17.5 -5.765625 C 18.757812 -6.472656 19.769531 -7.492188 20.53125 -8.828125 C 21.300781 -10.160156 21.6875 -11.738281 21.6875 -13.5625 Z M 21.6875 -13.5625 "/></g></g></g><g fill="#a6a6a6" fill-opacity="1"><g transform="translate(221.569143, 270.59421)"><g><path d="M 7.78125 -25.609375 C 7.78125 -24.828125 7.585938 -23.453125 7.203125 -21.484375 C 6.929688 -20.046875 6.726562 -18.835938 6.59375 -17.859375 C 6.457031 -16.878906 6.390625 -15.898438 6.390625 -14.921875 C 6.390625 -13.515625 6.535156 -12.039062 6.828125 -10.5 C 7.117188 -8.957031 7.664062 -7.601562 8.46875 -6.4375 C 9.28125 -5.28125 10.40625 -4.703125 11.84375 -4.703125 C 13.625 -4.703125 15.101562 -5.179688 16.28125 -6.140625 C 17.46875 -7.097656 18.582031 -8.429688 19.625 -10.140625 C 19.65625 -10.640625 19.757812 -12.503906 19.9375 -15.734375 L 20 -17.171875 L 20.078125 -25.203125 C 20.078125 -26.035156 20.304688 -26.648438 20.765625 -27.046875 C 21.234375 -27.453125 21.71875 -27.65625 22.21875 -27.65625 C 22.65625 -27.65625 23.050781 -27.453125 23.40625 -27.046875 C 23.757812 -26.648438 23.9375 -26.09375 23.9375 -25.375 L 23.484375 -2.453125 C 23.460938 -1.367188 23.316406 -0.640625 23.046875 -0.265625 C 22.773438 0.0976562 22.304688 0.28125 21.640625 0.28125 C 21.054688 0.28125 20.613281 0.179688 20.3125 -0.015625 C 20.019531 -0.210938 19.804688 -0.632812 19.671875 -1.28125 C 19.535156 -1.925781 19.46875 -2.929688 19.46875 -4.296875 C 19.46875 -5.273438 19.488281 -6.070312 19.53125 -6.6875 C 19.207031 -5.28125 18.644531 -4 17.84375 -2.84375 C 17.050781 -1.695312 16.144531 -0.796875 15.125 -0.140625 C 14.101562 0.503906 13.101562 0.828125 12.125 0.828125 C 8.34375 0.828125 5.796875 -0.703125 4.484375 -3.765625 C 3.179688 -6.828125 2.53125 -10.328125 2.53125 -14.265625 C 2.53125 -16.253906 2.644531 -18.269531 2.875 -20.3125 C 3.113281 -22.363281 3.503906 -24.097656 4.046875 -25.515625 C 4.597656 -26.941406 5.3125 -27.65625 6.1875 -27.65625 C 7.25 -27.65625 7.78125 -26.972656 7.78125 -25.609375 Z M 7.78125 -25.609375 "/></g></g></g><g fill="#a6a6a6" fill-opacity="1"><g transform="translate(248.588024, 270.59421)"><g><path d="M 22.328125 -11.0625 C 22.328125 -14.113281 21.84375 -16.753906 20.875 -18.984375 C 19.90625 -21.210938 18.054688 -22.328125 15.328125 -22.328125 C 14.515625 -22.328125 13.582031 -22.085938 12.53125 -21.609375 C 11.488281 -21.128906 10.476562 -20.46875 9.5 -19.625 C 8.519531 -18.789062 7.722656 -17.875 7.109375 -16.875 C 7.109375 -16.226562 7.09375 -15.132812 7.0625 -13.59375 C 7.019531 -12.132812 7 -11.128906 7 -10.578125 C 7 -9.984375 7.035156 -9.398438 7.109375 -8.828125 C 7.191406 -8.265625 7.3125 -7.566406 7.46875 -6.734375 C 7.582031 -6.117188 7.679688 -5.476562 7.765625 -4.8125 C 7.847656 -4.15625 7.890625 -3.539062 7.890625 -2.96875 C 7.890625 -1.875 7.765625 -1.046875 7.515625 -0.484375 C 7.265625 0.0664062 6.726562 0.34375 5.90625 0.34375 C 5.082031 0.34375 4.421875 0.113281 3.921875 -0.34375 C 3.421875 -0.800781 3.191406 -1.734375 3.234375 -3.140625 L 3.34375 -14.4375 C 3.132812 -17.164062 3.03125 -19.035156 3.03125 -20.046875 L 3.03125 -20.921875 C 3.03125 -22.609375 3.191406 -24.148438 3.515625 -25.546875 C 3.835938 -26.953125 4.363281 -27.65625 5.09375 -27.65625 C 6.550781 -27.65625 7.28125 -26.394531 7.28125 -23.875 C 7.28125 -23.476562 7.222656 -22.679688 7.109375 -21.484375 L 7.03125 -20.75 C 7.445312 -22.238281 8.210938 -23.519531 9.328125 -24.59375 C 10.441406 -25.675781 11.640625 -26.488281 12.921875 -27.03125 C 14.210938 -27.582031 15.3125 -27.859375 16.21875 -27.859375 C 19.832031 -27.859375 22.394531 -26.378906 23.90625 -23.421875 C 25.425781 -20.460938 26.1875 -16.867188 26.1875 -12.640625 C 26.1875 -8.722656 26.003906 -5.5 25.640625 -2.96875 C 25.273438 -0.4375 24.523438 0.828125 23.390625 0.828125 C 22.890625 0.828125 22.484375 0.765625 22.171875 0.640625 C 21.867188 0.523438 21.617188 0.234375 21.421875 -0.234375 C 21.234375 -0.710938 21.140625 -1.441406 21.140625 -2.421875 C 21.140625 -3.054688 21.1875 -3.679688 21.28125 -4.296875 C 21.382812 -4.910156 21.53125 -5.675781 21.71875 -6.59375 C 21.925781 -7.65625 22.078125 -8.492188 22.171875 -9.109375 C 22.273438 -9.722656 22.328125 -10.375 22.328125 -11.0625 Z M 22.328125 -11.0625 "/></g></g></g><g fill="#a6a6a6" fill-opacity="1"><g transform="translate(277.536837, 270.59421)"><g><path d="M 6.859375 -21.8125 C 6.566406 -21.8125 6.113281 -21.789062 5.5 -21.75 C 4.8125 -21.707031 4.226562 -21.6875 3.75 -21.6875 C 3.476562 -21.6875 3.144531 -21.800781 2.75 -22.03125 C 2.351562 -22.269531 2.007812 -22.597656 1.71875 -23.015625 C 1.4375 -23.441406 1.296875 -23.921875 1.296875 -24.453125 C 1.296875 -24.992188 1.414062 -25.5 1.65625 -25.96875 C 1.894531 -26.4375 2.203125 -26.8125 2.578125 -27.09375 C 2.953125 -27.375 3.34375 -27.515625 3.75 -27.515625 C 4.363281 -27.515625 5.492188 -27.457031 7.140625 -27.34375 C 7.203125 -29.71875 7.421875 -31.976562 7.796875 -34.125 C 8.171875 -36.28125 8.894531 -37.359375 9.96875 -37.359375 C 10.21875 -37.359375 10.476562 -37.238281 10.75 -37 C 11.019531 -36.757812 11.242188 -36.429688 11.421875 -36.015625 C 11.609375 -35.609375 11.703125 -35.164062 11.703125 -34.6875 C 11.703125 -32.644531 11.582031 -30.800781 11.34375 -29.15625 L 11.265625 -28.4375 L 11 -27.25 C 11.695312 -27.25 12.515625 -27.257812 13.453125 -27.28125 C 14.390625 -27.300781 15.109375 -27.320312 15.609375 -27.34375 C 17.148438 -27.394531 18.6875 -27.421875 20.21875 -27.421875 C 20.78125 -27.421875 21.1875 -27.085938 21.4375 -26.421875 C 21.6875 -25.765625 21.8125 -25.0625 21.8125 -24.3125 C 21.8125 -23.507812 21.601562 -22.867188 21.1875 -22.390625 C 20.769531 -21.921875 20.320312 -21.6875 19.84375 -21.6875 L 10.96875 -21.8125 L 10.953125 -19.15625 C 10.890625 -17.539062 10.859375 -15.796875 10.859375 -13.921875 C 10.859375 -11.242188 11.082031 -9.132812 11.53125 -7.59375 C 11.988281 -6.0625 12.859375 -5.296875 14.140625 -5.296875 C 15.234375 -5.296875 16.585938 -5.882812 18.203125 -7.0625 C 18.546875 -7.269531 18.726562 -7.375 18.75 -7.375 C 19.226562 -7.375 19.554688 -7.238281 19.734375 -6.96875 C 19.910156 -6.695312 20 -6.226562 20 -5.5625 C 20 -4.75 19.671875 -3.882812 19.015625 -2.96875 C 18.359375 -2.0625 17.578125 -1.289062 16.671875 -0.65625 C 15.773438 -0.03125 14.988281 0.28125 14.3125 0.28125 C 12.144531 0.28125 10.535156 -0.476562 9.484375 -2 C 8.441406 -3.53125 7.789062 -5.359375 7.53125 -7.484375 C 7.269531 -9.617188 7.125 -12.382812 7.09375 -15.78125 C 7.09375 -18.457031 7.015625 -20.46875 6.859375 -21.8125 Z M 6.859375 -21.8125 "/></g></g></g><g fill="#a6a6a6" fill-opacity="1"><g transform="translate(300.695877, 270.59421)"><g><path d="M 10.046875 -37.421875 C 10.046875 -35.023438 9.15625 -33.828125 7.375 -33.828125 C 6.582031 -33.828125 5.847656 -34.054688 5.171875 -34.515625 C 4.492188 -34.972656 4.15625 -35.78125 4.15625 -36.9375 C 4.15625 -37.507812 4.3125 -38.09375 4.625 -38.6875 C 4.9375 -39.28125 5.328125 -39.769531 5.796875 -40.15625 C 6.273438 -40.539062 6.722656 -40.734375 7.140625 -40.734375 C 7.929688 -40.734375 8.613281 -40.484375 9.1875 -39.984375 C 9.757812 -39.484375 10.046875 -38.628906 10.046875 -37.421875 Z M 8.4375 -2.453125 C 8.4375 -1.492188 8.234375 -0.734375 7.828125 -0.171875 C 7.429688 0.378906 6.984375 0.65625 6.484375 0.65625 C 5.773438 0.65625 5.210938 0.429688 4.796875 -0.015625 C 4.378906 -0.460938 4.066406 -1.21875 3.859375 -2.28125 C 3.703125 -3.195312 3.625 -5.164062 3.625 -8.1875 C 3.625 -13.175781 3.820312 -17.703125 4.21875 -21.765625 C 4.613281 -25.828125 5.515625 -27.859375 6.921875 -27.859375 C 7.492188 -27.859375 7.867188 -27.601562 8.046875 -27.09375 C 8.234375 -26.582031 8.328125 -25.847656 8.328125 -24.890625 L 8.09375 -20.859375 C 8 -19.492188 7.910156 -18.0625 7.828125 -16.5625 C 7.753906 -15.0625 7.71875 -13.726562 7.71875 -12.5625 C 7.71875 -11.3125 7.84375 -9.5625 8.09375 -7.3125 C 8.320312 -4.96875 8.4375 -3.347656 8.4375 -2.453125 Z M 8.4375 -2.453125 "/></g></g></g><g fill="#a6a6a6" fill-opacity="1"><g transform="translate(312.188995, 270.59421)"><g><path d="M 22.328125 -11.0625 C 22.328125 -14.113281 21.84375 -16.753906 20.875 -18.984375 C 19.90625 -21.210938 18.054688 -22.328125 15.328125 -22.328125 C 14.515625 -22.328125 13.582031 -22.085938 12.53125 -21.609375 C 11.488281 -21.128906 10.476562 -20.46875 9.5 -19.625 C 8.519531 -18.789062 7.722656 -17.875 7.109375 -16.875 C 7.109375 -16.226562 7.09375 -15.132812 7.0625 -13.59375 C 7.019531 -12.132812 7 -11.128906 7 -10.578125 C 7 -9.984375 7.035156 -9.398438 7.109375 -8.828125 C 7.191406 -8.265625 7.3125 -7.566406 7.46875 -6.734375 C 7.582031 -6.117188 7.679688 -5.476562 7.765625 -4.8125 C 7.847656 -4.15625 7.890625 -3.539062 7.890625 -2.96875 C 7.890625 -1.875 7.765625 -1.046875 7.515625 -0.484375 C 7.265625 0.0664062 6.726562 0.34375 5.90625 0.34375 C 5.082031 0.34375 4.421875 0.113281 3.921875 -0.34375 C 3.421875 -0.800781 3.191406 -1.734375 3.234375 -3.140625 L 3.34375 -14.4375 C 3.132812 -17.164062 3.03125 -19.035156 3.03125 -20.046875 L 3.03125 -20.921875 C 3.03125 -22.609375 3.191406 -24.148438 3.515625 -25.546875 C 3.835938 -26.953125 4.363281 -27.65625 5.09375 -27.65625 C 6.550781 -27.65625 7.28125 -26.394531 7.28125 -23.875 C 7.28125 -23.476562 7.222656 -22.679688 7.109375 -21.484375 L 7.03125 -20.75 C 7.445312 -22.238281 8.210938 -23.519531 9.328125 -24.59375 C 10.441406 -25.675781 11.640625 -26.488281 12.921875 -27.03125 C 14.210938 -27.582031 15.3125 -27.859375 16.21875 -27.859375 C 19.832031 -27.859375 22.394531 -26.378906 23.90625 -23.421875 C 25.425781 -20.460938 26.1875 -16.867188 26.1875 -12.640625 C 26.1875 -8.722656 26.003906 -5.5 25.640625 -2.96875 C 25.273438 -0.4375 24.523438 0.828125 23.390625 0.828125 C 22.890625 0.828125 22.484375 0.765625 22.171875 0.640625 C 21.867188 0.523438 21.617188 0.234375 21.421875 -0.234375 C 21.234375 -0.710938 21.140625 -1.441406 21.140625 -2.421875 C 21.140625 -3.054688 21.1875 -3.679688 21.28125 -4.296875 C 21.382812 -4.910156 21.53125 -5.675781 21.71875 -6.59375 C 21.925781 -7.65625 22.078125 -8.492188 22.171875 -9.109375 C 22.273438 -9.722656 22.328125 -10.375 22.328125 -11.0625 Z M 22.328125 -11.0625 "/></g></g></g><g fill="#a6a6a6" fill-opacity="1"><g transform="translate(341.137785, 270.59421)"><g><path d="M 16.328125 8.1875 C 17.234375 8.1875 17.925781 7.765625 18.40625 6.921875 C 18.882812 6.085938 19.207031 5.082031 19.375 3.90625 C 19.550781 2.738281 19.707031 1.1875 19.84375 -0.75 C 19.925781 -2.09375 20.003906 -3.082031 20.078125 -3.71875 C 19.867188 -2.851562 19.351562 -2.082031 18.53125 -1.40625 C 17.71875 -0.738281 16.773438 -0.226562 15.703125 0.125 C 14.628906 0.476562 13.628906 0.65625 12.703125 0.65625 C 9.242188 0.65625 6.613281 -0.398438 4.8125 -2.515625 C 3.019531 -4.640625 2.125 -7.796875 2.125 -11.984375 C 2.125 -14.710938 2.523438 -17.265625 3.328125 -19.640625 C 4.140625 -22.023438 5.367188 -23.945312 7.015625 -25.40625 C 8.660156 -26.863281 10.679688 -27.59375 13.078125 -27.59375 C 14.960938 -27.59375 16.796875 -26.960938 18.578125 -25.703125 C 20.367188 -24.453125 21.816406 -22.898438 22.921875 -21.046875 C 24.023438 -19.191406 24.578125 -17.429688 24.578125 -15.765625 L 24.03125 -2.125 L 24 -1.734375 C 23.90625 -1.210938 23.75 -0.03125 23.53125 1.8125 C 23.226562 4.40625 22.882812 6.503906 22.5 8.109375 C 22.113281 9.710938 21.40625 11.082031 20.375 12.21875 C 19.351562 13.351562 17.890625 13.921875 15.984375 13.921875 C 15.234375 13.921875 14.265625 13.789062 13.078125 13.53125 C 11.890625 13.269531 10.816406 12.832031 9.859375 12.21875 C 8.910156 11.601562 8.4375 10.785156 8.4375 9.765625 C 8.4375 8.804688 8.566406 8.078125 8.828125 7.578125 C 9.085938 7.078125 9.5625 6.828125 10.25 6.828125 C 10.425781 6.828125 10.585938 6.851562 10.734375 6.90625 C 10.878906 6.96875 11.019531 7.046875 11.15625 7.140625 C 11.632812 7.453125 12.226562 7.703125 12.9375 7.890625 C 13.644531 8.085938 14.773438 8.1875 16.328125 8.1875 Z M 13.34375 -4.703125 C 14.53125 -4.703125 15.625 -5.128906 16.625 -5.984375 C 17.625 -6.847656 18.457031 -7.910156 19.125 -9.171875 C 19.800781 -10.429688 20.289062 -11.675781 20.59375 -12.90625 C 20.382812 -14.570312 20.0625 -16.054688 19.625 -17.359375 C 19.195312 -18.671875 18.507812 -19.773438 17.5625 -20.671875 C 16.613281 -21.578125 15.332031 -22.03125 13.71875 -22.03125 C 11.082031 -22.03125 9.164062 -21.128906 7.96875 -19.328125 C 6.78125 -17.523438 6.171875 -15.203125 6.140625 -12.359375 C 6.140625 -9.535156 6.757812 -7.550781 8 -6.40625 C 9.25 -5.269531 11.03125 -4.703125 13.34375 -4.703125 Z M 13.34375 -4.703125 "/></g></g></g></svg>