<svg xmlns="http://www.w3.org/2000/svg" xmlns:xlink="http://www.w3.org/1999/xlink" width="500" zoomAndPan="magnify" viewBox="0 0 375 374.999991" height="500" preserveAspectRatio="xMidYMid meet" version="1.0"><defs><g/><clipPath id="b21f0e7172"><path d="M 207.480469 170.199219 L 253.980469 170.199219 L 253.980469 214.449219 L 207.480469 214.449219 Z M 207.480469 170.199219 " clip-rule="nonzero"/></clipPath><clipPath id="bd6fc8d134"><path d="M 136.625 170.199219 L 180.125 170.199219 L 180.125 214.449219 L 136.625 214.449219 Z M 136.625 170.199219 " clip-rule="nonzero"/></clipPath></defs><g clip-path="url(#b21f0e7172)"><path fill="#45659d" d="M 254.066406 214.101562 L 254.066406 214.464844 L 246.253906 214.464844 L 246.253906 214.101562 C 247.84375 214.101562 249.027344 212.828125 249.027344 211.328125 C 249.027344 211.101562 248.980469 210.832031 248.9375 210.558594 L 244.441406 194.980469 L 242.167969 194.980469 C 238.261719 194.980469 234.808594 197.613281 233.8125 201.382812 L 230.722656 213.238281 L 230.496094 214.101562 L 230.40625 214.464844 L 229.867188 214.464844 L 229.867188 214.101562 L 230.089844 214.101562 L 230.40625 212.875 L 233.542969 201.019531 C 234.539062 197.25 237.992188 194.617188 241.898438 194.617188 L 244.351562 194.617188 L 239.078125 176.222656 L 232.410156 201.628906 L 232.132812 202.699219 L 231.53125 204.984375 C 230.828125 207.65625 229.167969 209.988281 226.839844 211.476562 C 226.785156 211.511719 226.726562 211.546875 226.671875 211.582031 C 224.605469 212.859375 222.113281 213.605469 219.425781 213.605469 C 216.5625 213.605469 213.882812 212.785156 211.75 211.332031 C 210.066406 210.199219 207.84375 211.46875 207.84375 213.605469 L 207.480469 213.605469 L 207.480469 201.75 L 207.84375 201.75 C 207.84375 208.0625 214.019531 213.242188 219.425781 213.242188 C 223.042969 213.242188 226.195312 210.917969 227.878906 207.488281 C 228.445312 206.339844 228.84375 205.066406 229.046875 203.71875 C 229.207031 202.621094 229.441406 201.535156 229.71875 200.460938 L 230.777344 196.414062 L 236.398438 174.949219 C 236.851562 173.179688 235.535156 171.453125 233.71875 171.453125 L 233.71875 171.089844 L 244.027344 171.089844 L 244.027344 171.457031 L 243.390625 171.457031 C 241.574219 171.457031 239.984375 172.683594 239.53125 174.453125 C 239.351562 175.132812 239.351562 175.90625 239.53125 176.585938 L 244.707031 194.617188 L 244.800781 194.980469 L 249.25 210.46875 C 249.886719 212.644531 251.839844 214.101562 254.066406 214.101562 Z M 218.925781 192.488281 C 218.925781 192.488281 225.835938 194.441406 228.316406 198.65625 L 229.363281 194.664062 C 226.320312 191.511719 221.867188 189.882812 220.199219 189.308594 C 217.472656 188.355469 210.523438 186.628906 210.660156 180.042969 C 210.75 174.640625 214.65625 170.597656 219.5625 170.597656 C 224.378906 170.597656 228.28125 174.546875 228.417969 179.816406 L 228.417969 180.269531 L 228.828125 180.269531 L 228.828125 170.234375 L 228.417969 170.234375 C 228.417969 171.277344 227.648438 172.003906 226.785156 172.003906 C 226.511719 172.003906 226.285156 171.957031 226.011719 171.820312 C 224.148438 170.824219 221.921875 170.234375 219.5625 170.234375 C 212.882812 170.234375 207.480469 174.773438 207.480469 180.316406 C 207.480469 190.308594 217.609375 191.941406 218.925781 192.488281 Z M 218.925781 192.488281 " fill-opacity="1" fill-rule="nonzero"/></g><g clip-path="url(#bd6fc8d134)"><path fill="#45659d" d="M 179.632812 197.542969 C 179.222656 196.859375 177.535156 194.824219 173.085938 197.417969 L 170.898438 198.691406 C 171.289062 197.71875 171.523438 196.699219 171.589844 195.65625 C 171.71875 193.605469 171.214844 191.566406 170.09375 189.597656 C 168.882812 187.472656 167.042969 185.074219 164.335938 182.101562 C 165.082031 181.699219 165.589844 180.910156 165.589844 180.003906 C 165.589844 178.800781 164.691406 177.800781 163.527344 177.640625 L 165.144531 176.023438 C 166.09375 175.074219 166.09375 173.53125 165.144531 172.582031 C 164.34375 171.78125 163.066406 171.644531 162.109375 172.257812 C 162.046875 172.296875 161.992188 172.304688 161.921875 172.273438 C 161.851562 172.246094 161.816406 172.203125 161.800781 172.128906 C 161.558594 171.019531 160.558594 170.214844 159.421875 170.214844 C 158.289062 170.214844 157.289062 171.019531 157.046875 172.128906 C 157.03125 172.203125 156.996094 172.246094 156.925781 172.273438 C 156.855469 172.304688 156.800781 172.296875 156.738281 172.257812 C 155.78125 171.644531 154.503906 171.78125 153.699219 172.582031 C 153.242188 173.042969 152.992188 173.652344 152.992188 174.304688 C 152.992188 174.957031 153.242188 175.566406 153.699219 176.023438 L 155.316406 177.640625 C 154.15625 177.800781 153.257812 178.796875 153.257812 180.003906 C 153.257812 180.910156 153.765625 181.699219 154.511719 182.101562 C 151.804688 185.074219 149.960938 187.472656 148.753906 189.597656 C 147.292969 192.15625 146.878906 194.855469 147.539062 197.441406 L 143.101562 200.011719 L 142.546875 199.035156 C 142.046875 198.148438 140.914062 197.832031 140.027344 198.335938 L 137.828125 199.582031 C 136.941406 200.085938 136.625 201.214844 137.128906 202.101562 L 143.605469 213.542969 C 143.945312 214.144531 144.570312 214.480469 145.214844 214.480469 C 145.523438 214.480469 145.835938 214.402344 146.121094 214.242188 L 148.324219 212.996094 C 149.210938 212.492188 149.523438 211.363281 149.023438 210.476562 L 148.351562 209.292969 L 149.691406 208.519531 L 159.75 211.214844 C 160.316406 211.367188 160.871094 211.441406 161.417969 211.441406 C 162.503906 211.441406 163.542969 211.140625 164.519531 210.539062 L 178.769531 201.765625 C 180.066406 200.96875 180.476562 198.957031 179.632812 197.542969 Z M 154.375 174.304688 C 154.375 174.023438 154.480469 173.757812 154.679688 173.5625 C 155.027344 173.214844 155.578125 173.15625 155.988281 173.421875 C 156.433594 173.707031 156.96875 173.753906 157.453125 173.550781 C 157.941406 173.351562 158.285156 172.9375 158.398438 172.425781 C 158.5 171.945312 158.933594 171.597656 159.421875 171.597656 C 159.914062 171.597656 160.34375 171.945312 160.449219 172.425781 C 160.5625 172.941406 160.90625 173.351562 161.390625 173.550781 C 161.878906 173.753906 162.414062 173.707031 162.855469 173.421875 C 163.269531 173.15625 163.820312 173.214844 164.167969 173.5625 C 164.363281 173.757812 164.472656 174.023438 164.472656 174.304688 C 164.472656 174.585938 164.363281 174.847656 164.167969 175.046875 L 161.59375 177.617188 L 157.25 177.617188 L 154.679688 175.046875 C 154.480469 174.847656 154.375 174.585938 154.375 174.304688 Z M 155.644531 179 L 163.203125 179 C 163.753906 179 164.207031 179.449219 164.207031 180.003906 C 164.207031 180.558594 163.753906 181.007812 163.203125 181.007812 L 155.644531 181.007812 C 155.089844 181.007812 154.640625 180.558594 154.640625 180.003906 C 154.640625 179.449219 155.089844 179 155.644531 179 Z M 149.953125 190.28125 C 151.199219 188.097656 153.164062 185.585938 156.125 182.390625 L 162.71875 182.390625 C 165.683594 185.585938 167.648438 188.097656 168.890625 190.28125 C 170.773438 193.582031 170.664062 197.128906 168.597656 200.03125 L 165.238281 201.988281 C 164.839844 202.222656 164.433594 202.382812 164.011719 202.480469 C 164.167969 202.230469 164.292969 201.945312 164.375 201.632812 C 164.777344 200.136719 163.886719 198.574219 162.351562 198.078125 C 162.324219 198.066406 162.292969 198.058594 162.261719 198.054688 C 162.101562 198.027344 161.941406 197.996094 161.78125 197.960938 C 162.03125 197.804688 162.25 197.621094 162.429688 197.414062 C 162.894531 196.875 163.089844 196.203125 163.003906 195.46875 C 162.730469 193.21875 160.308594 192.820312 159.511719 192.6875 C 157.5 192.359375 157.460938 191.527344 157.445312 191.214844 C 157.402344 190.308594 158.140625 189.8125 158.847656 189.652344 C 159.015625 189.617188 159.1875 189.59375 159.363281 189.589844 C 159.386719 189.589844 159.410156 189.589844 159.433594 189.589844 C 160.238281 189.589844 161.066406 189.964844 161.453125 190.886719 C 161.601562 191.238281 162.003906 191.40625 162.359375 191.257812 C 162.710938 191.109375 162.875 190.703125 162.726562 190.351562 C 162.199219 189.089844 161.152344 188.453125 160.082031 188.265625 L 160.082031 187.601562 C 160.082031 187.222656 159.773438 186.910156 159.390625 186.910156 C 159.007812 186.910156 158.699219 187.222656 158.699219 187.601562 L 158.699219 188.273438 C 158.644531 188.28125 158.59375 188.292969 158.542969 188.304688 C 156.992188 188.65625 155.996094 189.851562 156.0625 191.28125 C 156.113281 192.3125 156.714844 193.632812 159.285156 194.054688 C 161.230469 194.375 161.558594 195.066406 161.628906 195.632812 C 161.671875 195.984375 161.589844 196.269531 161.382812 196.507812 C 160.675781 197.328125 159.226562 197.394531 158.285156 197 C 157.851562 196.816406 157.304688 196.445312 157.121094 195.703125 C 157.027344 195.332031 156.652344 195.105469 156.28125 195.199219 C 155.910156 195.292969 155.6875 195.667969 155.777344 196.039062 C 155.785156 196.070312 155.792969 196.097656 155.800781 196.128906 C 155.25 195.929688 154.730469 195.742188 154.28125 195.597656 C 152.273438 194.945312 150.457031 195.75 148.945312 196.625 L 148.789062 196.714844 C 148.355469 194.601562 148.753906 192.394531 149.953125 190.28125 Z M 147.644531 211.789062 L 145.441406 213.039062 C 145.222656 213.160156 144.933594 213.082031 144.808594 212.863281 L 138.332031 201.417969 C 138.207031 201.199219 138.289062 200.910156 138.507812 200.785156 C 138.507812 200.785156 140.710938 199.539062 140.710938 199.539062 C 140.925781 199.417969 141.21875 199.496094 141.34375 199.714844 L 147.820312 211.15625 C 147.941406 211.375 147.863281 211.667969 147.644531 211.789062 Z M 178.042969 200.589844 L 163.796875 209.363281 C 162.664062 210.058594 161.421875 210.230469 160.105469 209.878906 L 149.773438 207.109375 C 149.59375 207.0625 149.40625 207.085938 149.246094 207.179688 L 147.671875 208.089844 L 143.78125 201.214844 L 149.640625 197.824219 C 150.949219 197.066406 152.367188 196.429688 153.855469 196.910156 C 154.332031 197.066406 154.882812 197.265625 155.519531 197.496094 C 157.34375 198.15625 159.613281 198.976562 161.96875 199.40625 C 162.789062 199.695312 163.25 200.488281 163.039062 201.273438 C 162.765625 202.304688 161.90625 202.433594 161.222656 202.355469 C 160.066406 202.117188 158.964844 201.804688 157.804688 201.472656 C 157.25 201.3125 156.679688 201.152344 156.09375 200.992188 C 155.726562 200.894531 155.347656 201.113281 155.25 201.484375 C 155.148438 201.851562 155.367188 202.230469 155.738281 202.332031 C 156.3125 202.484375 156.878906 202.644531 157.421875 202.800781 C 158.621094 203.144531 159.753906 203.46875 160.972656 203.714844 C 160.976562 203.71875 161.976562 203.878906 161.976562 203.878906 C 163.433594 204.113281 164.730469 203.886719 165.933594 203.183594 L 173.785156 198.613281 C 176.046875 197.292969 177.789062 197.160156 178.445312 198.253906 C 178.898438 199.011719 178.695312 200.1875 178.042969 200.589844 Z M 141.351562 201.753906 C 141.414062 202.183594 141.117188 202.582031 140.6875 202.644531 C 140.257812 202.707031 139.859375 202.410156 139.796875 201.980469 C 139.734375 201.550781 140.03125 201.152344 140.460938 201.089844 C 140.890625 201.027344 141.289062 201.324219 141.351562 201.753906 Z M 141.351562 201.753906 " fill-opacity="1" fill-rule="evenodd"/></g><g fill="#7c7b7b" fill-opacity="1"><g transform="translate(118.911412, 233.065708)"><g><path d="M 5.8125 0.140625 C 5.164062 0.140625 4.441406 0.113281 3.640625 0.0625 C 2.847656 0.0195312 2.144531 -0.0351562 1.53125 -0.109375 L 1.53125 -1.5 C 3.070312 -1.351562 4.351562 -1.28125 5.375 -1.28125 C 6.007812 -1.28125 6.515625 -1.304688 6.890625 -1.359375 C 7.265625 -1.410156 7.578125 -1.503906 7.828125 -1.640625 C 8.066406 -1.785156 8.222656 -1.992188 8.296875 -2.265625 C 8.367188 -2.546875 8.40625 -2.914062 8.40625 -3.375 C 8.40625 -3.925781 8.375 -4.316406 8.3125 -4.546875 C 8.25 -4.785156 8.109375 -4.957031 7.890625 -5.0625 C 7.671875 -5.164062 7.300781 -5.238281 6.78125 -5.28125 L 3.765625 -5.625 C 3.035156 -5.707031 2.484375 -5.878906 2.109375 -6.140625 C 1.742188 -6.410156 1.5 -6.757812 1.375 -7.1875 C 1.25 -7.613281 1.1875 -8.175781 1.1875 -8.875 C 1.1875 -9.84375 1.351562 -10.570312 1.6875 -11.0625 C 2.019531 -11.5625 2.488281 -11.894531 3.09375 -12.0625 C 3.707031 -12.226562 4.523438 -12.3125 5.546875 -12.3125 C 6.234375 -12.3125 6.929688 -12.28125 7.640625 -12.21875 C 8.347656 -12.164062 8.910156 -12.097656 9.328125 -12.015625 L 9.328125 -10.671875 C 8.878906 -10.734375 8.320312 -10.785156 7.65625 -10.828125 C 7 -10.867188 6.382812 -10.890625 5.8125 -10.890625 C 5.15625 -10.890625 4.625 -10.859375 4.21875 -10.796875 C 3.820312 -10.742188 3.515625 -10.644531 3.296875 -10.5 C 3.046875 -10.363281 2.882812 -10.175781 2.8125 -9.9375 C 2.738281 -9.707031 2.703125 -9.375 2.703125 -8.9375 C 2.703125 -8.445312 2.738281 -8.09375 2.8125 -7.875 C 2.882812 -7.65625 3.019531 -7.492188 3.21875 -7.390625 C 3.414062 -7.296875 3.742188 -7.226562 4.203125 -7.1875 L 7.1875 -6.84375 C 7.894531 -6.769531 8.441406 -6.644531 8.828125 -6.46875 C 9.210938 -6.289062 9.492188 -5.972656 9.671875 -5.515625 C 9.835938 -5.085938 9.921875 -4.410156 9.921875 -3.484375 C 9.921875 -2.410156 9.753906 -1.609375 9.421875 -1.078125 C 9.097656 -0.554688 8.65625 -0.222656 8.09375 -0.078125 C 7.539062 0.0664062 6.78125 0.140625 5.8125 0.140625 Z M 5.8125 0.140625 "/></g></g></g><g fill="#7c7b7b" fill-opacity="1"><g transform="translate(130.034416, 233.065708)"><g><path d="M 10.03125 0 L 8.765625 -3.234375 L 3.296875 -3.234375 L 2.03125 0 L 0.5 0 L 5.09375 -12.171875 L 7 -12.171875 L 11.609375 0 Z M 6.0625 -10.53125 L 5.984375 -10.53125 L 3.75 -4.671875 L 8.296875 -4.671875 Z M 6.0625 -10.53125 "/></g></g></g><g fill="#7c7b7b" fill-opacity="1"><g transform="translate(142.130019, 233.065708)"><g><path d="M 9.625 0 L 5.484375 -5.484375 L 3.296875 -5.484375 L 3.296875 0 L 1.765625 0 L 1.765625 -12.171875 L 3.296875 -12.171875 L 3.296875 -6.890625 L 5.484375 -6.890625 L 9.640625 -12.171875 L 11.34375 -12.171875 L 6.703125 -6.28125 L 11.390625 0 Z M 9.625 0 "/></g></g></g><g fill="#7c7b7b" fill-opacity="1"><g transform="translate(153.995733, 233.065708)"><g/></g></g><g fill="#7c7b7b" fill-opacity="1"><g transform="translate(158.15138, 233.065708)"><g><path d="M 10.03125 0 L 8.765625 -3.234375 L 3.296875 -3.234375 L 2.03125 0 L 0.5 0 L 5.09375 -12.171875 L 7 -12.171875 L 11.609375 0 Z M 6.0625 -10.53125 L 5.984375 -10.53125 L 3.75 -4.671875 L 8.296875 -4.671875 Z M 6.0625 -10.53125 "/></g></g></g><g fill="#7c7b7b" fill-opacity="1"><g transform="translate(170.246983, 233.065708)"><g><path d="M 9.15625 -0.09375 C 8.789062 -0.0195312 8.332031 0.0351562 7.78125 0.078125 C 7.238281 0.117188 6.734375 0.140625 6.265625 0.140625 C 4.796875 0.140625 3.722656 -0.015625 3.046875 -0.328125 C 2.378906 -0.648438 1.929688 -1.234375 1.703125 -2.078125 C 1.472656 -2.921875 1.359375 -4.253906 1.359375 -6.078125 C 1.359375 -7.898438 1.472656 -9.234375 1.703125 -10.078125 C 1.929688 -10.929688 2.378906 -11.515625 3.046875 -11.828125 C 3.722656 -12.148438 4.796875 -12.3125 6.265625 -12.3125 C 6.742188 -12.3125 7.25 -12.285156 7.78125 -12.234375 C 8.3125 -12.191406 8.75 -12.128906 9.09375 -12.046875 L 9.09375 -10.71875 C 8.207031 -10.832031 7.394531 -10.890625 6.65625 -10.890625 C 5.414062 -10.890625 4.550781 -10.796875 4.0625 -10.609375 C 3.570312 -10.421875 3.25 -10.015625 3.09375 -9.390625 C 2.9375 -8.765625 2.859375 -7.660156 2.859375 -6.078125 C 2.859375 -4.503906 2.9375 -3.40625 3.09375 -2.78125 C 3.25 -2.15625 3.570312 -1.75 4.0625 -1.5625 C 4.550781 -1.375 5.414062 -1.28125 6.65625 -1.28125 C 7.5625 -1.28125 8.394531 -1.335938 9.15625 -1.453125 Z M 9.15625 -0.09375 "/></g></g></g><g fill="#7c7b7b" fill-opacity="1"><g transform="translate(180.41507, 233.065708)"><g><path d="M 9.15625 -0.09375 C 8.789062 -0.0195312 8.332031 0.0351562 7.78125 0.078125 C 7.238281 0.117188 6.734375 0.140625 6.265625 0.140625 C 4.796875 0.140625 3.722656 -0.015625 3.046875 -0.328125 C 2.378906 -0.648438 1.929688 -1.234375 1.703125 -2.078125 C 1.472656 -2.921875 1.359375 -4.253906 1.359375 -6.078125 C 1.359375 -7.898438 1.472656 -9.234375 1.703125 -10.078125 C 1.929688 -10.929688 2.378906 -11.515625 3.046875 -11.828125 C 3.722656 -12.148438 4.796875 -12.3125 6.265625 -12.3125 C 6.742188 -12.3125 7.25 -12.285156 7.78125 -12.234375 C 8.3125 -12.191406 8.75 -12.128906 9.09375 -12.046875 L 9.09375 -10.71875 C 8.207031 -10.832031 7.394531 -10.890625 6.65625 -10.890625 C 5.414062 -10.890625 4.550781 -10.796875 4.0625 -10.609375 C 3.570312 -10.421875 3.25 -10.015625 3.09375 -9.390625 C 2.9375 -8.765625 2.859375 -7.660156 2.859375 -6.078125 C 2.859375 -4.503906 2.9375 -3.40625 3.09375 -2.78125 C 3.25 -2.15625 3.570312 -1.75 4.0625 -1.5625 C 4.550781 -1.375 5.414062 -1.28125 6.65625 -1.28125 C 7.5625 -1.28125 8.394531 -1.335938 9.15625 -1.453125 Z M 9.15625 -0.09375 "/></g></g></g><g fill="#7c7b7b" fill-opacity="1"><g transform="translate(190.583156, 233.065708)"><g><path d="M 6.34375 0.140625 C 4.726562 0.140625 3.582031 -0.015625 2.90625 -0.328125 C 2.238281 -0.648438 1.8125 -1.207031 1.625 -2 C 1.445312 -2.800781 1.359375 -4.160156 1.359375 -6.078125 C 1.359375 -8.003906 1.445312 -9.363281 1.625 -10.15625 C 1.8125 -10.957031 2.238281 -11.515625 2.90625 -11.828125 C 3.582031 -12.148438 4.726562 -12.3125 6.34375 -12.3125 C 7.945312 -12.3125 9.085938 -12.148438 9.765625 -11.828125 C 10.453125 -11.515625 10.882812 -10.957031 11.0625 -10.15625 C 11.25 -9.363281 11.34375 -8.003906 11.34375 -6.078125 C 11.34375 -4.160156 11.25 -2.800781 11.0625 -2 C 10.882812 -1.207031 10.453125 -0.648438 9.765625 -0.328125 C 9.085938 -0.015625 7.945312 0.140625 6.34375 0.140625 Z M 6.34375 -1.28125 C 7.550781 -1.28125 8.363281 -1.351562 8.78125 -1.5 C 9.207031 -1.65625 9.484375 -2.039062 9.609375 -2.65625 C 9.742188 -3.269531 9.8125 -4.410156 9.8125 -6.078125 C 9.8125 -7.753906 9.742188 -8.898438 9.609375 -9.515625 C 9.484375 -10.128906 9.207031 -10.507812 8.78125 -10.65625 C 8.363281 -10.8125 7.550781 -10.890625 6.34375 -10.890625 C 5.144531 -10.890625 4.328125 -10.8125 3.890625 -10.65625 C 3.460938 -10.507812 3.179688 -10.128906 3.046875 -9.515625 C 2.921875 -8.898438 2.859375 -7.753906 2.859375 -6.078125 C 2.859375 -4.410156 2.921875 -3.269531 3.046875 -2.65625 C 3.179688 -2.039062 3.460938 -1.65625 3.890625 -1.5 C 4.328125 -1.351562 5.144531 -1.28125 6.34375 -1.28125 Z M 6.34375 -1.28125 "/></g></g></g><g fill="#7c7b7b" fill-opacity="1"><g transform="translate(203.279997, 233.065708)"><g><path d="M 10.90625 -12.171875 L 10.90625 -5.328125 C 10.90625 -3.742188 10.804688 -2.582031 10.609375 -1.84375 C 10.410156 -1.113281 9.992188 -0.597656 9.359375 -0.296875 C 8.722656 -0.00390625 7.695312 0.140625 6.28125 0.140625 C 4.863281 0.140625 3.835938 -0.0078125 3.203125 -0.3125 C 2.566406 -0.613281 2.144531 -1.128906 1.9375 -1.859375 C 1.726562 -2.585938 1.625 -3.742188 1.625 -5.328125 L 1.625 -12.171875 L 3.125 -12.171875 L 3.125 -4.734375 C 3.125 -3.671875 3.179688 -2.914062 3.296875 -2.46875 C 3.421875 -2.019531 3.695312 -1.707031 4.125 -1.53125 C 4.550781 -1.363281 5.269531 -1.28125 6.28125 -1.28125 C 7.289062 -1.28125 8.003906 -1.363281 8.421875 -1.53125 C 8.847656 -1.707031 9.113281 -2.015625 9.21875 -2.453125 C 9.332031 -2.898438 9.390625 -3.660156 9.390625 -4.734375 L 9.390625 -12.171875 Z M 10.90625 -12.171875 "/></g></g></g><g fill="#7c7b7b" fill-opacity="1"><g transform="translate(215.817686, 233.065708)"><g><path d="M 9.734375 0 L 3.3125 -9.296875 L 3.234375 -9.296875 L 3.234375 0 L 1.765625 0 L 1.765625 -12.171875 L 3.328125 -12.171875 L 9.65625 -3.078125 L 9.734375 -3.078125 L 9.734375 -12.171875 L 11.171875 -12.171875 L 11.171875 0 Z M 9.734375 0 "/></g></g></g><g fill="#7c7b7b" fill-opacity="1"><g transform="translate(228.762097, 233.065708)"><g><path d="M 4.390625 0 L 4.390625 -10.703125 L 0.53125 -10.703125 L 0.53125 -12.171875 L 9.75 -12.171875 L 9.75 -10.703125 L 5.90625 -10.703125 L 5.90625 0 Z M 4.390625 0 "/></g></g></g><g fill="#7c7b7b" fill-opacity="1"><g transform="translate(239.053963, 233.065708)"><g><path d="M 1.765625 0 L 1.765625 -12.171875 L 3.296875 -12.171875 L 3.296875 0 Z M 1.765625 0 "/></g></g></g><g fill="#7c7b7b" fill-opacity="1"><g transform="translate(244.111484, 233.065708)"><g><path d="M 9.734375 0 L 3.3125 -9.296875 L 3.234375 -9.296875 L 3.234375 0 L 1.765625 0 L 1.765625 -12.171875 L 3.328125 -12.171875 L 9.65625 -3.078125 L 9.734375 -3.078125 L 9.734375 -12.171875 L 11.171875 -12.171875 L 11.171875 0 Z M 9.734375 0 "/></g></g></g><g fill="#7c7b7b" fill-opacity="1"><g transform="translate(257.055895, 233.065708)"><g><path d="M 6.1875 -5.203125 L 6.1875 -6.59375 L 10.40625 -6.59375 L 10.40625 -0.21875 C 9.820312 -0.101562 9.164062 -0.015625 8.4375 0.046875 C 7.71875 0.109375 7.082031 0.140625 6.53125 0.140625 C 5.039062 0.140625 3.9375 -0.0195312 3.21875 -0.34375 C 2.507812 -0.664062 2.019531 -1.253906 1.75 -2.109375 C 1.488281 -2.960938 1.359375 -4.285156 1.359375 -6.078125 C 1.359375 -7.859375 1.492188 -9.179688 1.765625 -10.046875 C 2.035156 -10.910156 2.523438 -11.503906 3.234375 -11.828125 C 3.953125 -12.148438 5.050781 -12.3125 6.53125 -12.3125 C 7.101562 -12.3125 7.742188 -12.273438 8.453125 -12.203125 C 9.171875 -12.128906 9.800781 -12.046875 10.34375 -11.953125 L 10.34375 -10.609375 C 9 -10.796875 7.972656 -10.890625 7.265625 -10.890625 C 5.867188 -10.890625 4.894531 -10.8125 4.34375 -10.65625 C 3.789062 -10.507812 3.40625 -10.109375 3.1875 -9.453125 C 2.96875 -8.804688 2.859375 -7.679688 2.859375 -6.078125 C 2.859375 -4.597656 2.941406 -3.53125 3.109375 -2.875 C 3.273438 -2.226562 3.601562 -1.789062 4.09375 -1.5625 C 4.59375 -1.34375 5.410156 -1.234375 6.546875 -1.234375 C 6.898438 -1.234375 7.3125 -1.25 7.78125 -1.28125 C 8.25 -1.3125 8.632812 -1.34375 8.9375 -1.375 L 8.9375 -5.203125 Z M 6.1875 -5.203125 "/></g></g></g><path stroke-linecap="round" transform="matrix(0, 0.75, -0.75, 0, 194.725773, 170.202426)" fill="none" stroke-linejoin="miter" d="M 1.000933 0.998947 L 61.183228 0.998947 " stroke="#7c7b7b" stroke-width="2" stroke-opacity="1" stroke-miterlimit="4"/></svg>